<?xml version="1.0" standalone="no"?>
<!DOCTYPE svg PUBLIC "-//W3C//DTD SVG 20010904//EN"
 "http://www.w3.org/TR/2001/REC-SVG-20010904/DTD/svg10.dtd">
<svg version="1.0" xmlns="http://www.w3.org/2000/svg"
 width="400.000000pt" height="400.000000pt" viewBox="0 0 400.000000 400.000000"
 preserveAspectRatio="xMidYMid meet">
<metadata>
Created by potrace 1.11, written by Peter Selinger 2001-2013
</metadata>
<g transform="translate(0.000000,400.000000) scale(0.100000,-0.100000)"
fill="#000000" stroke="none">
<path d="M2189 3966 c-2 -2 -28 -7 -57 -10 -156 -18 -340 -88 -477 -179 -134
-89 -276 -230 -345 -342 l-20 -32 -65 12 c-64 12 -176 12 -214 0 -11 -3 -29
-8 -41 -10 -12 -2 -51 -19 -88 -37 -121 -60 -235 -195 -274 -324 -11 -37 -17
-43 -63 -59 -308 -107 -513 -394 -513 -720 0 -325 212 -617 519 -714 93 -30
111 -32 244 -37 66 -2 123 -4 128 -4 4 0 7 -163 7 -363 l0 -363 -62 0 -61 1
-26 48 c-59 107 -139 159 -247 159 -157 0 -270 -116 -269 -277 1 -112 56 -194
164 -243 71 -33 167 -28 234 12 55 31 114 98 122 137 6 28 32 43 66 39 8 -2
48 -2 90 -1 125 2 114 -44 115 482 l1 453 -22 22 c-21 21 -31 22 -164 23 -220
1 -321 27 -446 116 -416 295 -331 924 149 1104 31 11 66 21 76 21 31 0 57 34
69 90 49 229 288 376 511 315 81 -23 121 -23 135 0 126 209 276 352 470 448
80 39 178 74 233 83 20 3 40 8 44 10 10 6 109 16 174 17 381 5 734 -193 931
-523 90 -151 136 -301 149 -484 5 -82 17 -99 82 -116 127 -34 267 -147 331
-268 38 -73 70 -211 64 -286 -15 -229 -157 -420 -368 -494 -70 -25 -98 -30
-178 -31 -47 -1 -62 -5 -82 -25 -29 -29 -26 -62 6 -89 19 -15 35 -17 103 -13
296 19 538 210 617 486 69 238 4 494 -170 669 -60 61 -153 123 -219 147 -26
10 -50 20 -53 23 -4 3 -9 33 -13 66 -28 276 -140 511 -340 711 -185 184 -394
294 -646 339 -41 8 -304 17 -311 11z m-1608 -3105 c28 -2 77 -58 90 -102 27
-87 -46 -185 -136 -182 -142 5 -201 181 -88 261 44 30 49 31 134 23z"/>
<path d="M2284 3630 c-33 -13 -46 -36 -39 -70 8 -38 24 -46 110 -53 185 -17
337 -88 473 -224 41 -41 71 -63 86 -63 25 0 59 31 62 58 8 52 -144 190 -291
265 -111 56 -183 75 -356 91 -14 2 -34 0 -45 -4z"/>
<path d="M3013 3120 c-31 -13 -38 -50 -20 -107 9 -26 19 -64 23 -83 4 -19 9
-38 10 -42 1 -5 2 -32 3 -62 2 -88 57 -131 107 -81 24 24 25 29 19 100 -8 95
-40 222 -64 255 -20 28 -44 34 -78 20z"/>
<path d="M2010 3110 c-57 -12 -142 -55 -174 -89 -29 -30 -72 -113 -81 -156 -4
-17 -8 -75 -9 -130 l-3 -100 -59 -5 -59 -5 0 -95 0 -95 55 -3 c30 -2 57 -7 60
-12 4 -6 5 -171 1 -202 -1 -4 -26 -14 -56 -23 -30 -8 -55 -19 -56 -23 0 -4 -1
-38 -2 -77 l-2 -70 417 -3 416 -2 -2 102 -1 103 -230 0 -230 0 -5 60 c-3 33
-3 79 -1 103 l3 42 174 0 174 0 0 100 0 100 -175 0 -175 0 -1 38 c-3 86 2 135
16 163 43 83 152 85 235 4 44 -43 37 -45 143 43 l78 65 -23 25 c-64 71 -107
102 -179 127 -53 19 -188 27 -249 15z"/>
<path d="M1204 1615 c-30 -30 -30 -50 0 -80 24 -23 27 -24 206 -24 100 1 184
-2 187 -5 4 -4 7 -774 4 -917 -1 -21 -7 -28 -30 -32 -45 -9 -111 -67 -145
-127 -57 -101 -38 -233 46 -319 56 -58 103 -76 194 -76 73 0 85 3 135 34 150
90 180 289 63 418 -34 37 -91 73 -116 73 -12 0 -18 8 -19 23 0 12 0 238 0 502
0 264 -2 492 -5 506 -3 14 -15 31 -28 37 -13 6 -114 10 -245 11 -222 0 -223 0
-247 -24z m522 -1181 c71 -30 104 -126 68 -197 -44 -85 -163 -105 -231 -38
-115 115 12 298 163 235z"/>
<path d="M1875 1620 c-28 -31 -27 -67 2 -89 22 -18 41 -20 205 -20 99 0 183
-2 185 -5 4 -4 6 -549 3 -888 0 -46 -1 -48 -44 -66 -99 -44 -160 -140 -159
-252 1 -77 19 -125 71 -182 100 -111 285 -114 390 -7 54 55 77 114 76 194 -1
108 -46 183 -145 238 l-61 35 0 509 c0 427 -2 512 -14 528 -14 19 -29 20 -253
22 -224 2 -240 1 -256 -17z m529 -1190 c43 -23 67 -61 73 -114 18 -154 -191
-220 -267 -85 -71 127 67 268 194 199z"/>
<path d="M2543 1614 c-27 -27 -25 -57 8 -86 16 -14 46 -16 200 -17 100 0 184
-2 187 -5 2 -3 5 -188 6 -410 1 -422 1 -425 43 -433 10 -2 62 -4 116 -4 l97 0
21 -50 c73 -170 315 -212 440 -77 56 60 74 105 74 188 0 65 -4 82 -30 130
-109 199 -385 188 -488 -20 l-22 -45 -62 0 -63 -1 0 406 c0 388 -1 407 -19
427 -19 20 -30 21 -251 21 l-232 1 -25 -25z m1007 -774 c117 -83 57 -263 -87
-263 -125 0 -187 160 -97 250 45 46 130 51 184 13z"/>
</g>
</svg>
